<svg xmlns="http://www.w3.org/2000/svg" width="100" height="100" viewBox="0 0 100 100">
  <!-- App/extension icon source (Entry 57): Moonstone #5EB1BF rounded-square
       plate with the symbol in WHITE. Chosen over a transparent mark so the
       icon reads on any toolbar (light or dark) and stays legible at 16px.
       Symbol nested at 15% inset; plate corner radius 20%. -->
  <rect width="100" height="100" rx="20" ry="20" fill="#5EB1BF"/>
  <svg x="15" y="15" width="70" height="70" viewBox="11.3 3.3 108.2 108.2" preserveAspectRatio="xMidYMid meet">
    <polygon points="61.8,95.9 57.8,97.7 53.8,95.9 55.2,19 57.8,17.1 60.3,19" fill="#ffffff"/>
    <polygon points="48.5,92.4 45.2,89.4 45.3,85 94.6,65.2 96.8,67 96.6,69.9" fill="#ffffff"/>
    <polygon points="49.9,20 15.3,25.6 49.9,23" fill="#ffffff"/>
    <polygon points="49.9,29.1 23.7,32.7 49.9,32.1" fill="#ffffff"/>
    <polygon points="49.9,37.5 29.3,39.7 49.9,40.5" fill="#ffffff"/>
    <path d="M94.5,36.7l-4.7,4.7l0.5,1.7l1.7,0.6l4.8-4.3C96,38.5,95.3,37.6,94.5,36.7z" fill="#ffffff"/>
    <path d="M76.4,25.4l-2.8,6l1,1.4l1.8,0l3.1-5.7C78.4,26.6,77.4,26,76.4,25.4z" fill="#ffffff"/>
    <path d="M108,53.7l-6,2.8l-0.1,1.8l1.4,1.1l6-2.4C108.8,55.9,108.4,54.8,108,53.7z" fill="#ffffff"/>
    <path d="M111.3,66.8l4.2-1.7c-6.9-23.5-26.7-41.6-51.3-45.9l0,4.6C86.8,28.1,105,44.9,111.3,66.8z" fill="#ffffff"/>
  </svg>
</svg>
